
        <svg xmlns="http://www.w3.org/2000/svg" xmlns:xlink="http://www.w3.org/1999/xlink" version="1.1" width="3164.2827058904236" height="933.9420841587787" viewBox="0 0 3164.2827058904236 933.9420841587787">
			
			<g transform="scale(8.21413529452121) translate(10, 10)">
				<defs id="SvgjsDefs1001"/><g id="SvgjsG1007" featureKey="symbolGroupContainer" transform="matrix(0.49555630780693943,0,0,0.49555630780693943,0.00017320765191196756,0.00008548140256364838)" fill="#fff"><path xmlns="http://www.w3.org/2000/svg" d="M17.914 148.907zM22.657 154.94a90.586 90.586 0 0 0 5.861 6.251c6.914 6.805 15.159 12.525 24.004 16.851 3.259 1.526 6.265 3.107 9.787 4.468.88.338 1.779.7 2.724 1.026.953.302 1.941.604 2.974.903 1.027.321 2.122.549 3.267.786 1.146.23 2.336.493 3.614.624a91.24 91.24 0 0 1-18.434-5.99 93.833 93.833 0 0 1-16.873-9.842c-10.548-7.727-19.57-17.648-26.16-28.989-.272-.339-.685-.985-1.18-1.808l-.796-1.348-.803-1.551c-.534-1.076-1.149-2.168-1.62-3.226a71.281 71.281 0 0 0-1.326-2.748c2.048 5.101 4.412 9.563 7.059 13.806a93.473 93.473 0 0 0 3.869 5.697c-.192-.259-.392-.511-.583-.771a95.012 95.012 0 0 0 4.6 5.841l.016.02zM18.039 149.078l-.125-.17.125.17zM1.335 106.042l-.483-3.875c.256 2.365.553 5.008 1.096 7.654l-.327-1.879a23.961 23.961 0 0 1-.286-1.9zM85.812 185.575c6.652.673 13.628.472 20.461-.609 6.837-1.077 13.524-2.987 19.741-5.449-11.45 4.503-23.602 6.506-35.49 6.171-1.591-.025-3.159 0-4.712-.113z"/><path xmlns="http://www.w3.org/2000/svg" d="M46.426 171.967l-.259-.165c.087.055.172.111.259.165zM46.167 171.802zM43.653 170.135zM56.077 177.284A83.837 83.837 0 0 0 73.2 183.1c-9.688-2.21-18.805-6.109-26.774-11.133 3.06 1.947 6.277 3.749 9.651 5.317zM177.002 107.094c.098-1.58.296-3.238.346-4.027.594-5.071.77-9.401.745-13.745-.11-.783-.425-2.25-.55-3.918-.153-1.672-.378-3.309-.568-4.924-.289-1.601-.538-3.186-.854-4.74 2.275 11.617 2.237 23.279.144 34.282a94.97 94.97 0 0 1 .737-2.928z"/><path xmlns="http://www.w3.org/2000/svg" d="M.887 83.482c.848-6.9 2.653-13.626 4.37-18.107l-.695 3.28c.429-.961 1.122-3.194 2.067-5.557l.682-1.802.753-1.747c.5-1.131.92-2.203 1.363-3.025-.303.771-.595 1.602-.947 2.436-.345.837-.732 1.687-1.101 2.542l1.514-3.409A111.863 111.863 0 0 0 4.954 69.8c-1.133 4.352-2.029 8.926-2.511 13.032-.14 1.024-.189 2.024-.28 2.978-.067.954-.183 1.864-.192 2.724-.042 1.719-.1 3.224-.071 4.428.105 2.409.25 3.61.459 2.939.411-1.333.403-8.188 1.837-16.767.767-4.276 1.868-8.966 3.362-13.561 1.483-4.599 3.427-9.058 5.44-12.992l-.592 1.292-.545 1.331-1.116 2.691-1.024 2.78-.521 1.402c-.153.476-.308.954-.461 1.434-1.32 3.807-2.307 7.816-3.167 11.857l-.559 3.052c-.205 1.014-.292 2.046-.444 3.067-.318 2.041-.434 4.097-.611 6.129-.199 4.074-.239 8.098.13 11.946-.015-.914-.03-1.726-.017-2.512l.115-2.355c.048-.809.039-1.667.115-2.65.07-.983.134-2.091.19-3.402.391-6.608 1.572-13.15 3.408-19.481 1.75-6.358 3.814-11.957 6.889-17.03l.801-1.526c.542-1.024.993-2.034 1.566-3.064.653-1.13 1.278-1.976 1.784-2.751.521-.767.963-1.441 1.469-2.095l3.682-5.082c.075-.009-.022.185-.2.473a28.962 28.962 0 0 1 1.959-2.49c.755-.875 1.488-1.803 2.109-2.569.146-.007.288-.011.623-.251 8.65-9.197 19.295-16.692 31.291-21.417l2.667-1.039 2.7-.899 1.343-.448 1.36-.38 2.71-.753c1.55-.373 3.12-.751 4.721-1.091l2.437-.426c.819-.141 1.642-.3 2.484-.378 1.674-.201 3.134-.625 3.921-.729 4.369-.249 8.73-.199 13.849.216.397.007 1.015.043 1.732.082.717.041 1.537.061 2.332.134.932.21 1.927.418 2.971.621 6.369.988 12.527 2.754 18.386 5.103l-.007-.028 2.244.894 2.29 1.058c1.571.684 3.11 1.559 4.7 2.383.798.407 1.554.904 2.338 1.354.77.474 1.576.894 2.32 1.412 1.508 1.002 3.037 1.961 4.446 3.032a99.912 99.912 0 0 1 6.6 5.198c.046.042.094.081.14.122l.042.038 1.457 1.322 1.394 1.391 1.395 1.392c.462.467.89.967 1.337 1.449-.216-.35-.208-.491-.2-.63-.689-.66-1.504-1.441-2.309-2.21 1.343 1.222 2.515 2.327 3.477 3.229.371.474.776.94 1.16 1.449l1.186 1.566 1.261 1.629 1.255 1.752c2.226 2.838 4.191 5.874 6.057 8.97.864 1.588 1.817 3.131 2.586 4.774l1.213 2.436 1.092 2.497c.314.533.192.022.231-.068 1.225 2.962 2.21 6.042 3.102 9.146a88.212 88.212 0 0 1 3.408 17.211c.225 1.378.321 2.772.52 4.153l-.123 2.924c-.001 1.103.057 2.206.01 3.311l-.128 3.326c-.016.75-.124 1.569-.187 2.459-.084.888-.128 1.846-.256 2.856l-.412 3.192c-.132 1.119-.387 2.269-.583 3.471a90.635 90.635 0 0 1-4.312 15.482c-.242.826-.427 1.486-.592 1.855-.627 1.501-1.296 2.954-1.942 4.385-.723 1.394-1.386 2.788-2.127 4.108a86.09 86.09 0 0 1-7.949 12.379c-.336.439-.649.885-.987 1.297l-.998 1.206c-.66.779-1.25 1.558-1.876 2.234-1.251 1.352-2.301 2.606-3.286 3.549-1.128 1.178-1.027 1.233-.246.665a35.07 35.07 0 0 0 1.608-1.262l2.122-1.914c.776-.677 1.519-1.441 2.235-2.161.708-.725 1.416-1.386 1.962-1.984 1.101-1.191 1.824-1.926 1.67-1.599-1.777 3.345-5.013 7.471-9.743 12.035-2.413 2.227-5.128 4.647-8.339 6.98-1.566 1.221-3.307 2.338-5.082 3.558-1.834 1.123-3.708 2.353-5.757 3.445-4.484 2.442 3.365-1.475 3.577-1.512a22.87 22.87 0 0 1-2.377 1.64c-1.478.786-2.943 1.597-4.474 2.273-.895.411-1.774.855-2.679 1.239l-2.729 1.122 1.444-.568c2.952-1.173 5.711-2.555 8.202-3.922-.936.566-1.96 1.221-3.082 1.812-1.203.622-2.448 1.302-3.697 1.909l-3.625 1.686c12.968-4.711 24.885-12.507 34.319-22.67 4.723-5.066 8.935-10.631 12.369-16.651a93.904 93.904 0 0 0 8.288-18.999c-3.154 9.93-8.071 19.052-13.981 26.765 10.744-14.507 17.15-32.293 17.999-50.636-.001 1.011-.101 2.018-.168 3.025-.083 1.007-.123 2.018-.241 3.022-.257 2.005-.441 4.021-.827 6.009-.624 4-1.636 7.931-2.782 11.815 2.262-7.021 3.613-14.424 4.145-21.869.554-7.451.092-14.947-1.057-22.211 1.974 9.622 2.301 20.524.619 31.298 1.182-6.949 1.482-14.112 1.028-21.214-.102-2.713-.422-5.407-.685-7.901-.377-2.476-.662-4.762-1.027-6.611 1.445 6.826 2.015 12.648 2.293 18.136-.267-11.977-2.748-24.112-7.62-35.511 2.659 6.191 4.842 12.851 6.175 19.698 1.34 6.84 1.897 13.838 1.58 20.57-.015-.788.018-1.575-.028-2.366l-.107-2.391c.287 10.85-1.384 21.604-4.696 31.717-1.662 5.056-3.715 9.969-6.2 14.644a95.521 95.521 0 0 1-8.56 13.316c3.673-4.29 7.551-10.354 10.646-17.015 3.081-6.675 5.368-13.894 6.941-20.199-2.314 11.322-6.907 22.494-13.571 32.471-6.646 9.985-15.351 18.764-25.423 25.502-10.06 6.759-21.474 11.437-33.187 13.748a94.608 94.608 0 0 1-17.657 1.809 94.462 94.462 0 0 1-17.361-1.515l3.005.571c1.002.19 2.018.295 3.026.445 2.016.324 4.055.446 6.087.633 4.073.229 8.168.306 12.25-.005 4.089-.217 8.152-.827 12.196-1.572 2.006-.456 4.036-.829 6.017-1.414.994-.278 2-.521 2.987-.83l2.955-.958c-1.492.462-3.062 1.074-4.739 1.523l-2.101.618a91.772 91.772 0 0 0 12.91-4.496 89.46 89.46 0 0 0 5.651-2.705 96.653 96.653 0 0 1-10.714 4.872 98.407 98.407 0 0 1-21.66 5.382c-1.11.176-2.122.231-3.029.326l-2.428.24c-1.429.113-2.484.164-3.222.245-1.477.147-1.687.284-1.099.397.587.113 1.971.203 3.673.251 1.697-.01 3.71-.101 5.541-.268 18.397-1.887 35.288-9.107 48.824-19.916 13.545-10.811 23.919-25.172 29.701-41.467.363-.946.642-1.922.944-2.89.293-.971.617-1.932.882-2.912.491-1.97 1.072-3.917 1.448-5.917l.619-2.985.487-3.012.241-1.507.172-1.517.342-3.034c.698-8.114.422-16.315-.812-24.363-.66-4.554-1.82-9.961-3.315-14.777l-1.15-3.484c-.4-1.107-.825-2.151-1.203-3.133l-.557-1.415-.571-1.271-.981-2.124c-3.134-6.359-7.072-12.424-11.682-18.065-4.605-5.643-9.896-10.868-15.861-15.418l-2.244-1.703-2.327-1.608-1.166-.806-1.203-.756-2.417-1.508c-3.295-1.904-6.67-3.739-10.228-5.261-3.521-1.598-7.206-2.895-10.957-4.055-1.895-.52-3.781-1.1-5.724-1.499-.968-.209-1.928-.463-2.907-.638l-2.944-.521C100.363.01 93.04-.285 85.724.265 78.412.83 71.069 2.218 64.028 4.614l-2.635.913c-.881.297-1.73.682-2.597 1.019-.858.359-1.735.673-2.577 1.069l-2.532 1.173c-.852.376-1.675.808-2.496 1.245l-2.469 1.297-2.402 1.412c-.8.472-1.606.933-2.372 1.458l-2.324 1.528c-.782.497-1.506 1.078-2.261 1.612-.741.554-1.51 1.07-2.226 1.654l-2.157 1.737c-.729.565-1.417 1.178-2.103 1.792l-2.063 1.83-1.971 1.919c-.656.639-1.319 1.271-1.93 1.951-5.031 5.298-9.451 11.078-13.066 17.194A99.518 99.518 0 0 0 5.18 64.379C.805 77.299-.45 90.402.134 102.237c-.126-4.872-.147-11.859.753-18.755zm141.132 90.446a96.807 96.807 0 0 0 8.765-6.389c-2.84 2.339-5.758 4.499-8.765 6.389zm40.217-54.282c-.299.901-.552 1.791-.882 2.641l-.957 2.523-.466 1.248-.513 1.231a108.54 108.54 0 0 0-.997 2.501 97.307 97.307 0 0 1-6.587 13.35c-2.521 4.275-5.443 8.281-8.565 12.04-1.542 1.899-3.222 3.66-4.874 5.421l-2.581 2.523c-.847.848-1.774 1.604-2.652 2.404-.736.64-1.478 1.266-2.225 1.882a90.696 90.696 0 0 0 7.896-7.312 89.808 89.808 0 0 1-11.689 10.188c-1.036.722-2.037 1.496-3.113 2.176l-3.247 2.069-3.43 1.949c-1.167.648-2.399 1.224-3.634 1.855a74.206 74.206 0 0 1 2.685-1.508c1.021-.567 2.092-1.237 3.138-1.85 1.054-.601 2.012-1.261 2.808-1.813.796-.552 1.42-1.01 1.745-1.306-.464.315-.936.617-1.406.924a92.477 92.477 0 0 0 1.507-1.015c-.021.023-.065.059-.101.091 10.932-7.466 20.245-17.277 27.223-28.462 7.009-11.175 11.57-23.781 13.46-36.601-.41 5.142-1.352 9.248-2.543 12.851zm-6.654-65.352zm-8.448-12.698a92.37 92.37 0 0 1 7.773 14.352c.25.549.486 1.106.719 1.664 4.963 12.154 7.221 25.192 6.89 38.036.084-4.25-.198-8.498-.669-12.71-.533-4.854-1.518-9.65-2.824-14.341-2.562-9.407-6.723-18.323-12.005-26.451.485.67.996 1.396 1.525 2.166a32.826 32.826 0 0 1 1.59 2.463l-.638-1.109-.689-1.079-1.378-2.156c-.938-1.424-1.955-2.796-2.934-4.192-1.062-1.334-2.069-2.712-3.174-4.011-.836-.953-1.637-1.938-2.485-2.879 2.992 3.155 5.801 6.54 8.299 10.247zM96.886 1.152c1.467.078 2.937.221 4.407.331 1.204.101 2.402.279 3.588.413.356.015.732.039 1.204.092.471.065 1.034.186 1.769.354 5.469.912 10.459 2.283 14.001 3.699 6.798 2.573 13.123 5.774 18.86 9.471 5.739 3.69 10.889 7.887 15.246 12.471 2.008 2.179 1.422 1.704.315.646l1.662 1.764c-.736-.734-1.459-1.478-2.206-2.196l-2.301-2.09c.56.49 1.918 1.663 2.845 2.522-7.389-7.539-16.026-13.799-25.375-18.404-9.356-4.603-19.431-7.446-29.502-8.581 1.618.18 2.412.22 3.168.24-1.085-.127-2.173-.301-3.274-.401-1.479-.097-2.955-.229-4.423-.301l-4.36-.103c1.444-.001 2.907.039 4.376.073z"/><path xmlns="http://www.w3.org/2000/svg" d="M115.942 184.69l.426-.125c-.446.12-.885.252-1.334.366.304-.076.609-.15.908-.241zM160.424 146.151c4.235-5.587 7.977-12.263 10.366-18.014l-.029.006c-6.061 14.322-15.892 26.66-28.16 35.744a159.12 159.12 0 0 0 6.418-4.703c2.698-2.82 7.213-7.406 11.405-13.033zM35.35 162.846c7.172 6.412 15.821 11.992 25.448 15.751 3.754 1.413 7.585 2.651 11.503 3.523 1.944.502 3.929.812 5.899 1.181.987.175 1.987.272 2.979.412.994.129 1.986.275 2.987.333-4.519-.501-9.005-1.251-13.372-2.44-4.364-1.185-8.642-2.65-12.769-4.449a97.4 97.4 0 0 1-11.894-6.314c-3.786-2.408-7.376-5.097-10.781-7.997zM123.877 174.277l-2.219.871-2.266.756c-1.5.54-3.047.944-4.59 1.373 1.551-.39 3.111-.754 4.624-1.254l2.283-.698 2.23-.815c-.086-.044-.594.055-.062-.233zM97.683 179.965c-1.16.099-2.326.09-3.494.102-1.168.014-2.338.039-3.509-.038l1.576.148c.482.031.916.068 1.295.113 1.381-.118 2.752-.151 4.132-.325zM51.441 169.209c1.341.787 2.765 1.48 4.178 2.244.354.194.996.415 1.801.709-1.721-.739-3.37-1.655-5.046-2.505-.83-.441-1.629-.935-2.443-1.395-.812-.464-1.621-.927-2.389-1.445l.937.626.977.584 1.985 1.182z"/></g><g id="SvgjsG1008" featureKey="symbolFeature-0" transform="matrix(1.219479551978116,0,0,1.219479551978116,7.244208940641867,7.932905841359258)" fill="#fff"><title xmlns="http://www.w3.org/2000/svg">Ramadan 64px nounproject</title><path xmlns="http://www.w3.org/2000/svg" d="M55.7871,29.83042l-4.63146-9.69289a2.159,2.159,0,0,0-2.87576-1.01111l-.24935.11977a2.13375,2.13375,0,0,0-1.13884,2.52338,4.37989,4.37989,0,0,1-3.52747.69793,14.71093,14.71093,0,0,1-5.42464-2.28187,7.12729,7.12729,0,0,0-2.45022-1.153,22.283,22.283,0,0,0-7.08953,1.02043,5.50315,5.50315,0,0,0-2.10271,2.14983c-.00687.0111-.01816.02552-.0265.03715-2.28506,1.48285-5.07.5046-7.52981-.36208-.55734-.19645-1.08216-.3772-1.5817-.5254A2.21416,2.21416,0,0,0,15.897,19.2295l-.14676-.06332a2.20251,2.20251,0,0,0-2.93908,1.02927L8.21646,29.7941A2.25781,2.25781,0,0,0,8,30.77134a1.23361,1.23361,0,0,0,.01669.212,2.19038,2.19038,0,0,0,1.23983,1.75569l.15658.07608a2.20207,2.20207,0,0,0,2.51255-.4334,2.1507,2.1507,0,0,0,.27069-.3383A15.77146,15.77146,0,0,1,16.16,33.813c.134.07644.25695.14633.367.20777a3.82792,3.82792,0,0,0-.33266.2914,1.8164,1.8164,0,0,0-.57231,2.08259A2.81649,2.81649,0,0,0,17.759,37.80443a.31745.31745,0,0,0-.00282.05055,4.47232,4.47232,0,0,0,1.21529,2.34175l.12811.162a1.34781,1.34781,0,0,0,.95269.52715c.04369.00393.08688.0054.13007.0054a1.9369,1.9369,0,0,0,.878-.23446A2.353,2.353,0,0,0,22.22422,41.817a3.97448,3.97448,0,0,0,1.68256.482.91537.91537,0,0,0,.66508-.214,3.88168,3.88168,0,0,0,.49868-.64115,1.83855,1.83855,0,0,0,.20271.93663l.001.00147a1.90412,1.90412,0,0,0,1.77435.911h.01816a3.76653,3.76653,0,0,0,2.11216-.66971c.10958.09332.22124.18658.32432.28048,1.31934,1.12842,1.80379,1.60894,1.80428,1.60943a1.92611,1.92611,0,0,0,1.40917.5723,2.4576,2.4576,0,0,0,1.52795-.53991,1.65517,1.65517,0,0,0,.61747-1.02632,3.253,3.253,0,0,0,3.42844-.185,1.73114,1.73114,0,0,0,.76422-1.43911,2.73312,2.73312,0,0,0,2.55182-.80349,2.2502,2.2502,0,0,0,.66016-1.64968,2.73373,2.73373,0,0,0,2.37021-.94533,2.16454,2.16454,0,0,0-.03178-2.90958,16.1161,16.1161,0,0,0,7.77-2.93279,2.14856,2.14856,0,0,0,1.21553.38042,2.17446,2.17446,0,0,0,.935-.21351l.24984-.11976v-.00049a2.15084,2.15084,0,0,0,1.01159-2.87037ZM18.44165,36.817c-.0924.096-.17915.18827-.25327.272l-.00761.00822a2.26989,2.26989,0,0,1-1.86858-1.0062c-.16492-.375-.02307-.79612.41867-1.24916a3.64714,3.64714,0,0,1,.61354-.47855l.00049-.00049.00344-.00191a.36413.36413,0,0,0,.1178-.04227c.04761-.03239.09767-.06086.14479-.08835l.10258-.06184c1.6006-1.14167,2.52237-.63955,2.76533-.45893a.872.872,0,0,1,.37978.88662l-.04712.039-.01889.016c-.09387.07933-.19793.16847-.31057.26612l-.03215.02782q-.16971.14739-.35684.31334l-.03386.03021c-.1221.10857-.24726.22091-.37414.33619l-.02417.0219c-.11878.10808-.23756.2179-.35524.32766l-.08994.08393q-.16492.15471-.32051.30561l-.09388.0912c-.10147.09936-.19866.19608-.28922.28873C18.48754,36.76893,18.46521,36.79249,18.44165,36.817ZM21.18158,39.646l-.0092.01129c-.00737.00638-.04761.04319-.054.04957-.00674.00663-.01067.01549-.01681.02264l-.00184.0019a1.5206,1.5206,0,0,1-.98165.40346.58863.58863,0,0,1-.427-.24345l-.12859-.163a4.406,4.406,0,0,1-1.0489-1.82736,1.68443,1.68443,0,0,1,.133-.188,32.83959,32.83959,0,0,1,2.9889-2.78149c.02994-.02126.05927-.03838.08909-.05795a2.62593,2.62593,0,0,1,.33536-.1909c.01779-.00819.035-.01362.05264-.0212a1.72972,1.72972,0,0,1,.34284-.11035c.01006-.002.01964-.002.0297-.0038a1.17334,1.17334,0,0,1,.33376-.01368l.01006.002a.92821.92821,0,0,1,.31119.09495,1.17175,1.17175,0,0,1,.562,1.0705,1.93227,1.93227,0,0,1-.06086.46481c-.02455.06774-.16983.33475-.269.509l-.56163.76471-.0146.01718Zm4.235-.24591c-.08393.15363-.17228.31168-.26112.46433l-.00012.00027-.00037.00071a9.48052,9.48052,0,0,1-1.08718,1.659l-.01375.01178a3.09279,3.09279,0,0,1-1.952-.70532.826.826,0,0,1-.36813-.671l.01326-.01571c.017-.01982.03092-.03678.04123-.05028a.643.643,0,0,0,.05055-.06261L23.138,38.2632l.22149-.30023a.22822.22822,0,0,0,.0589-.07412l.58359-.80152a3.06314,3.06314,0,0,0,.36665-.725,2.78932,2.78932,0,0,0,.07166-.43009c.00172-.01751.00737-.036.009-.05344l.01178-.00438a.52556.52556,0,0,1,.11522-.02494l.027-.00147a1.09784,1.09784,0,0,1,.143-.00077c.01547.00083.03007.00107.04626.00248a1.56358,1.56358,0,0,1,.20394.03307c.01767.004.0362.00917.05449.01387a1.90275,1.90275,0,0,1,.25375.08332,1.48913,1.48913,0,0,1,.99639,1.64526A12.22966,12.22966,0,0,1,25.41657,39.40011Zm1.42783,3.12953a1.08666,1.08666,0,0,1-.9154-.52126,2.34994,2.34994,0,0,1,.13007-1.687,4.98163,4.98163,0,0,1,.21449-.51783,2.5972,2.5972,0,0,1,1.07835-1.31149.62306.62306,0,0,1,.591.158,1.049,1.049,0,0,1,.25425,1.00129c-.0108.10405-.029.20713-.04712.3102a2.25941,2.25941,0,0,0,.00245,1.096c.06258.19646.13744.39239.21965.58495.03559.08381.07485.15838.11314.23869s.07288.16382.11436.24146A3.2647,3.2647,0,0,1,26.8444,42.52964Zm17.21926-4.523a1.68107,1.68107,0,0,1-2.14934.47807.37939.37939,0,0,0-.24726-.08872l-4.97418-4.74987a.37667.37667,0,1,0-.52028.54482L41.287,39.07469a.36662.36662,0,0,0,.15387.08443,1.40472,1.40472,0,0,1-.38358,1.416,1.94872,1.94872,0,0,1-2.4085.36861.371.371,0,0,0-.167-.04046L33.84607,36.246a.37691.37691,0,1,0-.534.53205l4.765,4.78706a.36559.36559,0,0,0,.16172.09043.9153.9153,0,0,1-.40272,1.07725,2.50871,2.50871,0,0,1-3.3077-.43144.36672.36672,0,0,0-.17228-.10369l-3.14081-3.27959a.377.377,0,1,0-.54482.52126l3.30131,3.44709a.35376.35376,0,0,0,.053.03651.81072.81072,0,0,1-.25916,1.03988,1.47486,1.47486,0,0,1-1.9211.0211c-.02012-.02012-.50359-.50064-1.84208-1.64525-.18014-.16443-.38039-.33426-.59145-.509a.37415.37415,0,0,0-.14664-.07283c-.04258-.08-.0838-.16237-.12381-.24858-.02478-.05362-.05117-.10417-.07473-.15948-.07166-.16839-.13841-.34251-.19375-.517a1.59589,1.59589,0,0,1,.0211-.74164c.02062-.11878.04074-.23805.04958-.32886a1.76418,1.76418,0,0,0-.49083-1.66783,1.37857,1.37857,0,0,0-1.30708-.32641,1.16347,1.16347,0,0,0-.11191.03878c.00368-.01515.00675-.02969.00908-.04319l.00123-.00393a2.16032,2.16032,0,0,0-.00883-.85392c-.00184-.00868-.00135-.01862-.00332-.02727a1.91268,1.91268,0,0,0-.06822-.20213,2.42462,2.42462,0,0,0-1.37-1.39193,2.14059,2.14059,0,0,0-1.21186-.16345,1.80913,1.80913,0,0,0-.89171-1.15725l-.00159-.0011v0l-.00295-.00194a1.92459,1.92459,0,0,0-1.7352.04041l-.007.00273a1.8571,1.8571,0,0,0-.8214-1.03559c-.46432-.2837-1.75079-.79514-3.65569.56445l-.0297.01755a.3698.3698,0,0,0-.04-.02491c-.159-.07951-.38579-.20909-.66262-.36665A17.75486,17.75486,0,0,0,12.659,31.379l4.26677-8.91.15069-.31757.01669-.03534c.43831.135.90705.30039,1.3969.47267,2.12246.74769,4.682,1.64888,6.996.867-.1232.15535-.24444.3118-.37868.46165l-.29842.32542c-1.12425,1.22392-1.88626,2.05385-1.82859,2.70981a.796.796,0,0,0,.17646.42905c.59439.77305,2.04234,1.75864,5.04425-.3053.11387-.07755.31216-.243.6528-.52911a19.59873,19.59873,0,0,1,1.80281-1.40279,3.46618,3.46618,0,0,1,1.96037-.561c1.68551.02945,4.226,3.21886,6.46766,6.03278.58212.73035,1.15933,1.45531,1.74833,2.16063a19.04272,19.04272,0,0,0,2.65637,2.74864.44639.44639,0,0,0,.051.04565l.00614.00389.00466.004-.001.001C44.49755,36.39526,44.68455,37.27973,44.06366,38.00665Zm11.10156-6.78277a1.39219,1.39219,0,0,1-.71562.79711l-.24885.11976a1.3917,1.3917,0,0,1-1.39887-.10749,1.68769,1.68769,0,0,1-.16393-.13065,1.31489,1.31489,0,0,1-.173-.19188,1.3745,1.3745,0,0,1-.13473-.22671l-2.03351-4.24367-2.6009-5.43007-.0027-.00479a.38733.38733,0,0,0-.01939-.05755,1.38977,1.38977,0,0,1,.68225-1.82147l.24984-.12025a1.40177,1.40177,0,0,1,1.87.65722l4.63147,9.69289A1.38541,1.38541,0,0,1,55.16522,31.22388Z"/></g><g id="SvgjsG1009" featureKey="nameLeftFeature-0" transform="matrix(1.1662346912304635,0,0,1.1662346912304635,111.76675314516952,16.471677136843397)" fill="#fff"><path d="M1.8 13 c-0.44 -0.52 -1 -0.88 -1.6 -1 l6.12 0 c-1 0.52 -0.88 1.08 -0.88 1.36 s0.04 0.6 0.12 0.92 c1.92 9.12 8.84 13.32 12.52 24.68 c0.04 -0.04 0.04 -0.08 0.08 -0.12 c0 -0.04 0 -0.04 0.04 -0.04 c1.08 -1.96 2.2 -3.96 3.32 -6 c1.92 -3.52 4.32 -7.88 6.4 -11.68 l-0.6 -1.08 l-0.56 -1.04 c-0.76 -1.48 -1.32 -3.08 -1.32 -4.08 c0 -0.32 -0.04 -1.04 0.6 -1.88 c0.6 -0.76 1.52 -1.08 2.48 -1.08 c1.24 0 2.36 0.56 2.52 1.96 c0.04 0.16 0.04 0.32 0.04 0.48 c0 0.48 -0.12 1.2 -0.44 2 s-0.76 1.56 -1.12 2.2 c0.52 0.96 1.04 1.96 1.64 3.04 c1 1.88 2.28 4.2 3.68 6.72 c2.68 4.84 5.44 9.76 5.76 10.52 c1.12 -3.56 6.32 -19.08 8.2 -24.76 c0.04 -0.12 0.08 -0.28 0.08 -0.4 c0 -0.56 -0.28 -1.44 -1.84 -1.72 l5 0 c-1.04 0.2 -2.64 0.96 -3.08 2.24 c-2.04 6.16 -7.72 23.2 -8.52 25.76 l-2.28 0 c-1.92 -3.52 -6.92 -12.8 -10.12 -18.68 c-3.84 6.92 -9.04 16.36 -10.28 18.68 l-2.28 0 c-0.8 -4.04 -3.24 -7.72 -5.92 -11.68 c-2.68 -3.88 -5.52 -8.32 -6.88 -13.8 c-0.12 -0.44 -0.44 -0.96 -0.88 -1.52 z M27.88 13.239999999999998 c-0.2 0.28 -0.28 0.6 -0.28 0.96 c0 0.08 -0.04 0.52 0.28 1.32 c0.32 0.84 0.84 1.68 1.32 2.48 l0.2 0.4 c0.12 -0.16 0.16 -0.28 0.2 -0.36 c0.68 -1.4 1.28 -2.48 1.28 -3.56 c0 -0.12 -0.04 -0.28 -0.04 -0.44 c-0.12 -1.08 -0.8 -1.72 -1.56 -1.72 c-0.48 0 -0.96 0.28 -1.4 0.92 z M49.865 31.36 c-0.72 -1.72 -1.08 -3.56 -1.08 -5.44 c0 -7.52 5.8 -14.32 13.52 -14.32 c6.92 0 13.64 5.52 13.64 14.32 c0 7.4 -5.92 14.36 -13.48 14.36 c-5.8 0 -10.56 -3.84 -12.6 -8.92 z M52.105000000000004 23 c-0.16 1 -0.2 2 -0.2 2.92 l0 0.76 c0.2 6.56 3.76 13.08 10.36 13.08 l0.16 0 c3.56 0 6.24 -1.76 8 -4.52 c1.76 -2.72 2.44 -6.12 2.44 -9.24 l0 -0.92 c-0.32 -6.4 -3.12 -10.4 -6.44 -12.12 c-1.28 -0.68 -2.64 -1 -4.08 -1 c-1.88 0 -3.64 0.48 -5.2 1.56 c-2.88 1.84 -4.48 5.72 -5.04 9.48 z M84.01 39.96 l-8.04 0 c1 -0.12 2.44 -0.8 2.56 -2.36 l0 -23.24 c-0.12 -1.64 -1.56 -2.12 -2.56 -2.36 l9.12 0 c5.44 0 10.92 2.2 10.92 7.56 c0 3.76 -2.84 6 -6.56 6.96 c0.76 1.4 1.48 2.8 2.2 4.12 c1.24 2.36 2.68 5.08 3.76 7 c0.44 0.76 1.04 2.12 2.24 2.32 l-5.64 0 c0.48 -0.44 0.52 -0.96 0.52 -1.32 c0 -0.2 -0.16 -1.04 -0.36 -1.36 c-1.08 -1.96 -2.44 -4.52 -3.56 -6.6 c-0.68 -1.24 -1.32 -2.44 -1.96 -3.68 c-0.6 0.04 -1.08 0.08 -1.68 0.08 c-1.76 0 -2.88 0.28 -3.48 1.52 l0 9 c0.12 1.32 1.2 2.16 2.52 2.36 z M81.49000000000001 12.16 l0 16.12 c0.44 -1.08 1.68 -1.4 3.48 -1.4 c7.08 0 8.08 -4.28 8.08 -7.32 c0 -3.08 -0.92 -7.4 -8.08 -7.4 l-3.48 0 z M97.67500000000001 12 l8.04 0 c-1.44 0.28 -2.52 1.2 -2.52 2.68 l0 13.24 l12.32 -13.68 c0.2 -0.32 0.36 -0.72 0.36 -1.04 c0 -0.12 0 -0.96 -1.24 -1.2 l4.96 0 c-1.08 0.2 -2.88 1.28 -3.88 2.28 c-1.28 1.44 -2.84 3.2 -4.08 4.6 c-0.72 0.84 -1.44 1.64 -2.2 2.44 c1.08 2.28 2.16 4.48 3.16 6.6 c1.68 3.6 3.76 7.8 4.96 10.28 c0.36 0.76 1 1.36 1.92 1.76 l-5.64 0 c0.6 -0.48 0.6 -0.88 0.6 -1.08 c0 -0.32 -0.08 -0.76 -0.32 -1.36 c-1.08 -2.24 -2.72 -5.84 -4.12 -8.72 c-0.84 -1.72 -1.68 -3.48 -2.56 -5.28 l-4.24 4.68 l0 9.12 c0 1.44 1.08 2.44 2.52 2.64 l-8.04 0 c1.08 -0.12 2.44 -0.88 2.56 -2.44 l0 -22.8 c-0.12 -1.6 -1.48 -2.56 -2.56 -2.72 z"/></g><g id="SvgjsG1010" featureKey="nameRightFeature-0" transform="matrix(1.1662346912304635,0,0,1.1662346912304635,247.53350684644306,16.471677136843397)" fill="#fff"><path d="M5.88 31.6 l0 8.2 l6.48 0 c3.64 0 8.56 -1.52 9.48 -5.44 c0 -0.04 0 -0.12 0.04 -0.16 l0 -0.16 c0.04 -0.2 0.04 -0.44 0.08 -0.64 c0 -1.28 -0.08 -2.16 -0.64 -3.32 c-1.52 -3.2 -4.6 -5.16 -8.2 -5.16 c-0.28 0 -0.6 0 -0.88 0.04 l-0.96 0.12 c-3.4 0.88 -5 3.12 -5.4 6.52 z M9.88 12.16 l-4 0 l0 18.52 c0.44 -3.2 2.52 -5.16 5.6 -5.88 c2.4 -0.56 4.52 -2.04 5.24 -4.48 c0.24 -0.88 0.24 -1.8 0.04 -2.76 c-0.8 -3.16 -3.56 -5.4 -6.88 -5.4 z M12.36 39.96 l-11.96 0 c0.6 -0.08 1.2 -0.36 1.68 -0.72 c0.56 -0.48 0.84 -1.2 0.84 -1.92 l0 -22.68 c0 -0.44 -0.08 -0.8 -0.24 -1.12 c-0.16 -0.28 -0.36 -0.56 -0.6 -0.76 c-0.56 -0.4 -1 -0.68 -1.68 -0.76 l9.4 0 c3.36 0 7.72 1.08 8.88 4.68 c0.28 0.92 0.32 1.84 0.16 2.8 c-0.48 2.8 -2.88 4.4 -5.52 5.08 c0.4 -0.04 0.88 -0.04 1.4 0 c3.76 0.28 7.28 1.28 9.2 4.84 c0.44 0.92 0.72 1.88 0.8 2.88 c0.04 1.04 -0.12 2.04 -0.48 3 c-1.76 4.48 -7.8 4.68 -11.88 4.68 z M26.225 31.36 c-0.72 -1.72 -1.08 -3.56 -1.08 -5.44 c0 -7.52 5.8 -14.32 13.52 -14.32 c6.92 0 13.64 5.52 13.64 14.32 c0 7.4 -5.92 14.36 -13.48 14.36 c-5.8 0 -10.56 -3.84 -12.6 -8.92 z M28.465 23 c-0.16 1 -0.2 2 -0.2 2.92 l0 0.76 c0.2 6.56 3.76 13.08 10.36 13.08 l0.16 0 c3.56 0 6.24 -1.76 8 -4.52 c1.76 -2.72 2.44 -6.12 2.44 -9.24 l0 -0.92 c-0.32 -6.4 -3.12 -10.4 -6.44 -12.12 c-1.28 -0.68 -2.64 -1 -4.08 -1 c-1.88 0 -3.64 0.48 -5.2 1.56 c-2.88 1.84 -4.48 5.72 -5.04 9.48 z M52.330000000000005 39.96 c1 -0.12 2.36 -1.04 2.36 -2.2 l0 -25.76 l0.48 0 l17.08 23.12 l0 -20.84 c0 -0.76 -0.76 -1.96 -2.36 -2.28 l4.96 0 c-1.08 0.16 -2.28 1.08 -2.4 2.2 l0 25.76 l-0.56 0 c-0.64 -0.96 -11.44 -15.6 -17 -23.2 l0 20.96 c0.12 1.16 1.28 2.08 2.4 2.24 l-4.96 0 z M85.915 39.96 l-11.04 0 c1.08 -0.12 2.52 -0.92 2.52 -2.64 l0 -22.68 c0 -1.8 -1.48 -2.44 -2.52 -2.64 l11.04 0 c8 0 15 5.52 15 14 s-7 13.96 -15 13.96 z M85.915 12.16 l-5.56 0 l0 27.64 l5.56 0 c7.52 0 12.04 -6.44 12.04 -13.8 s-4.52 -13.84 -12.04 -13.84 z"/></g>
			</g>
		</svg>
	